{
    "accessors" : [
        {
            "bufferView" : 0,
            "componentType" : 5123,
            "count" : 5184,
            "max" : [
                963
            ],
            "min" : [
                0
            ],
            "type" : "SCALAR"
        },
        {
            "bufferView" : 1,
            "componentType" : 5126,
            "count" : 964,
            "max" : [
                1.177971363067627,
                0.4631372094154358,
                1.217446208000183
            ],
            "min" : [
                -1.1779707670211792,
                -1.4855902194976807,
                -1.2174453735351562
            ],
            "type" : "VEC3"
        },
        {
            "bufferView" : 2,
            "componentType" : 5126,
            "count" : 964,
            "max" : [
                0.9959410429000854,
                1.0,
                0.9989013075828552
            ],
            "min" : [
                -0.9959410429000854,
                -0.999969482421875,
                -0.9989013075828552
            ],
            "type" : "VEC3"
        },
        {
            "bufferView" : 3,
            "componentType" : 5123,
            "count" : 7488,
            "max" : [
                1349
            ],
            "min" : [
                0
            ],
            "type" : "SCALAR"
        },
        {
            "bufferView" : 4,
            "componentType" : 5126,
            "count" : 1350,
            "max" : [
                1.2560003995895386,
                0.3827390670776367,
                1.2560003995895386
            ],
            "min" : [
                -1.2559998035430908,
                -1.449958324432373,
                -1.2559999227523804
            ],
            "type" : "VEC3"
        },
        {
            "bufferView" : 5,
            "componentType" : 5126,
            "count" : 1350,
            "max" : [
                0.99981689453125,
                0.9708853363990784,
                0.99981689453125
            ],
            "min" : [
                -0.99981689453125,
                -0.9867549538612366,
                -0.99981689453125
            ],
            "type" : "VEC3"
        }
    ],
    "asset" : {
        "generator" : "Khronos Blender glTF 2.0 exporter",
        "version" : "2.0"
    },
    "bufferViews" : [
        {
            "buffer" : 0,
            "byteLength" : 10368,
            "byteOffset" : 0,
            "target" : 34963
        },
        {
            "buffer" : 0,
            "byteLength" : 11568,
            "byteOffset" : 10368,
            "target" : 34962
        },
        {
            "buffer" : 0,
            "byteLength" : 11568,
            "byteOffset" : 21936,
            "target" : 34962
        },
        {
            "buffer" : 0,
            "byteLength" : 14976,
            "byteOffset" : 33504,
            "target" : 34963
        },
        {
            "buffer" : 0,
            "byteLength" : 16200,
            "byteOffset" : 48480,
            "target" : 34962
        },
        {
            "buffer" : 0,
            "byteLength" : 16200,
            "byteOffset" : 64680,
            "target" : 34962
        }
    ],
    "buffers" : [
        {
            "byteLength" : 80880,
            "uri" : "data:application/octet-stream;base64,"
        }
    ],
    "materials" : [
        {
            "name" : "Red",
            "pbrMetallicRoughness" : {
                "baseColorFactor" : [
                    0.0045194546692073345,
                    1.0,
                    0.0,
                    1.0
                ],
                "metallicFactor" : 0.0
            }
        },
        {
            "name" : "White",
            "pbrMetallicRoughness" : {
                "metallicFactor" : 0.0
            }
        }
    ],
    "meshes" : [
        {
            "name" : "Sphere",
            "primitives" : [
                {
                    "attributes" : {
                        "NORMAL" : 2,
                        "POSITION" : 1
                    },
                    "indices" : 0,
                    "material" : 0
                },
                {
                    "attributes" : {
                        "NORMAL" : 5,
                        "POSITION" : 4
                    },
                    "indices" : 3,
                    "material" : 1
                }
            ]
        }
    ],
    "nodes" : [
        {
            "name" : "Camera",
            "rotation" : [
                0.483536034822464,
                0.33687159419059753,
                -0.20870360732078552,
                0.7804827094078064
            ],
            "translation" : [
                3.481834650039673,
                1.5677446126937866,
                2.7378315925598145
            ]
        },
        {
            "mesh" : 0,
            "name" : "Sphere",
            "rotation" : [
                1.0,
                0.0,
                -0.0,
                -1.6292068494294654e-07
            ]
        }
    ],
    "scene" : 0,
    "scenes" : [
        {
            "name" : "Scene",
            "nodes" : [
                1,
                0
            ]
        }
    ]
}
